<svg xmlns="http://www.w3.org/2000/svg" xmlns:xlink="http://www.w3.org/1999/xlink" width="200" height="200" class="icon" p-id="4262" t="1699702655474" version="1.1" viewBox="0 0 1024 1024"><path fill="#044B96" d="M854.408999 510.817058c0-189.422164-153.560398-342.980515-342.985632-342.980515-189.43035 0-342.981539 153.553235-342.981539 342.980515 0 189.429327 153.551188 342.976422 342.981539 342.976422C700.848601 853.79348 854.408999 700.237175 854.408999 510.817058zM511.423367 844.1304c-184.086645 0-333.308225-149.226696-333.308225-333.313342 0-184.085622 149.226696-333.313342 333.308225-333.313342 184.086645 0 333.317435 149.22772 333.317435 333.313342C844.740802 694.90268 695.510012 844.1304 511.423367 844.1304zM511.423367 68.721151c-244.158812 0-442.101024 197.931978-442.101024 442.095907s197.942211 442.095907 442.101024 442.095907c244.168022 0 442.105117-197.933001 442.105117-442.095907C953.52439 266.653129 755.592412 68.721151 511.423367 68.721151zM511.428483 938.25922c-236.06753 0-427.443186-191.370539-427.443186-427.442162S275.360953 83.374896 511.428483 83.374896c236.07674 0 427.447279 191.370539 427.447279 427.442162S747.505223 938.25922 511.428483 938.25922zM349.468788 826.6247l-4.154623-5.457292c-1.784646 3.343141-4.933359 8.865925-9.484002 16.536628l-15.95232-9.445116 0.778736 2.840698 2.440585 0.547469 12.066827 7.167237-11.149944 18.825764c-10.914584-2.681062-17.334807-4.485151-19.24225-5.414313l0.354064 5.594415c2.639107-0.632403 8.714476-0.330528 18.23634 0.925069-2.190899 3.691065-4.853541 7.996115-7.969509 12.935614l4.438079 0.821715c2.469238-4.503571 4.606925-8.328689 6.452969-11.434423l19.946284-33.668821L349.468788 826.6247zM348.019787 854.505701c4.612041 0.543376 9.021467 0.958838 13.241582 1.264806 4.229325 0.312108 7.194866 0.774643 8.893554 1.369184l-1.515516-6.288217c-5.708002 2.015913-12.31242 2.790556-19.831674 2.322905l10.504238-17.721617 2.969635-0.334621-3.903913-5.892197c-2.365884 4.367471-4.881171 8.775874-7.501858 13.195533l-18.241456 30.79947c-1.746784 2.955308-0.962931 5.41943 2.379187 7.40669l11.386328 6.745634c3.295046 1.354857 5.976108 1.341554 8.015557-0.027629-0.859577-1.331321-1.1328-2.691295-0.821715-4.088108 0.335644-1.416256 1.775436-4.442172 4.333702-9.120728l-1.1328-0.670266c-1.831718 2.718925-3.607154 5.306866-5.372358 7.751544-1.750877 2.454912-3.545756 3.143597-5.368264 2.048659l-8.199753-4.857635c-1.972934-1.170662-2.39863-2.705622-1.264806-4.63967L348.019787 854.505701zM408.187121 894.208958c3.942799 8.762571 6.033413 14.422478 6.288217 16.947997 0.26913 2.521426 1.12359 3.328815 2.568499 2.351558 1.434675-0.953721 2.176572-2.559289 2.190899-4.824889 0.019443-2.261507-3.332908-7.241938-10.036587-14.95562L408.187121 894.208958zM419.211199 875.617531l-25.100678-8.463766-3.257184-3.545756c-0.935302 3.304256-1.992377 6.713912-3.172249 10.211573-1.199315 3.497661-2.436492 6.933923-3.75758 10.286274l4.342912-0.433882 0.661056-1.945305 11.292184 3.805676-5.036713 14.890128c-0.821715 2.445702-2.13871 3.313465-3.956102 2.605338-1.798972-0.707105-4.046153-1.774413-6.727215-3.223415l-0.670266 1.14201c4.295839 2.705622 6.203282 5.339612 5.712095 7.902994 4.230348 0.150426 7.014764-1.449002 8.332782-4.805446l5.844102-17.325597 11.037381 3.724835-0.901533 2.696412 4.428869-0.670266c0.703011-2.666736 2.114151-7.096628 4.200672-13.284561l2.427282-0.547469-2.606361-4.687766L419.211199 875.617531zM415.174256 889.223411l-25.851784-8.714476 4.125971-12.19474 25.842575 8.715499L415.174256 889.223411zM411.624407 862.47521c1.614777-0.89744 2.355651-2.285043 2.24718-4.125971-0.122797-1.855254-2.086521-4.338818-5.891174-7.43125l-0.74599 0.552585c1.463328 3.3984 2.153036 6.311753 2.090615 8.728802C409.254429 862.626659 410.009629 863.381859 411.624407 862.47521zM428.198897 869.697705l-47.680952-16.083304 1.855254 2.789533c1.671059 0.023536 3.257184 0.288572 4.758374 0.793062l49.946552 16.863063-3.385097-6.581905L428.198897 869.697705zM391.220704 892.287189l-3.361561-5.754051c-3.219321 3.445472-10.627035 7.184633-22.240537 11.244089l0.160659 1.147126c8.506744-1.468444 16.09763-3.814886 22.773679-7.001461L391.220704 892.287189zM496.411465 876.807636l-11.830443-1.396813-3.37998-3.003404c-0.207731 3.285836-0.500397 6.5246-0.896416 9.762341l-4.050246 34.018791c-0.254803 2.219551-0.783853 5.872754-1.567705 10.966773l3.634784-1.378393 5.844102-49.120744 12.632715 1.514493-8.223289 17.424858c2.029216 2.317789 3.526313 5.088902 4.475941 8.318456 0.953721 3.228531 1.051959 6.051833 0.330528 8.468882-0.74599 2.416026-2.190899 3.445472-4.380774 3.105734-2.171456-0.339738-4.725628-0.944512-7.648191-1.821485l0.113587 1.311879c4.447289 1.387603 6.703679 3.390213 6.755868 6.004761 2.167363-0.265036 4.187369-1.209548 6.076392-2.785439 1.874697-1.596358 2.860141-4.338818 2.963495-8.205892 0.113587-3.871167-2.161223-8.685823-6.821359-14.422478 2.426259-3.875261 4.669346-7.40669 6.745634-10.636245 2.058892-3.191692 3.998057-4.956895 5.820566-5.26491l-3.663436-5.098111L496.411465 876.807636zM471.923748 876.514971l-2.185782 2.586918-7.887644-0.944512 1.128707-9.451256 1.963725-0.811482-4.946662-3.173273c-0.255827 3.597945-0.693802 7.951089-1.302669 13.068643l-8.139378-0.977257-3.15383-2.705622c-0.169869 2.917446-0.406253 5.65479-0.708128 8.223289l-3.464915 29.14683c-0.306992 2.563382-0.7552 5.542226-1.316995 8.940626l3.592828-1.1328 0.73678-6.147 19.713994 2.337231-0.632403 5.377474 3.564175-0.86981c0.288572-3.941775 0.533143-6.689353 0.713244-8.214079l3.549849-29.92966 2.313695-1.529843L471.923748 876.514971zM454.518333 912.822898l-8.148587-0.968048 1.936095-16.356526 8.143471 0.967024L454.518333 912.822898zM448.475709 894.208958l1.916653-16.117073 8.148587 0.981351-1.907443 16.107863L448.475709 894.208958zM466.093972 914.206408l-8.408507-1.010003 1.940189-16.371876 8.4126 1.010003L466.093972 914.206408zM468.198913 896.541073l-8.4126-0.98749 1.911536-16.117073 8.417717 1.001817L468.198913 896.541073zM569.362964 916.514987c-0.727571-1.316995-1.284249-4.120854-1.642406-8.389064l-1.316995 0.113587c0.24457 4.967128 0.343831 8.289804 0.306992 9.93221-0.028653 1.623987-0.831948 2.615571-2.408863 2.913353l-18.20871 1.544169c-2.100848 0.179079-3.242857-0.675382-3.3984-2.549056l-0.9967-11.792581 16.362666-1.387603 0.274246 3.323699 3.809769-2.124384c-0.466628-3.408633-1.2689-11.95324-2.440585-25.644053l2.218528-1.992377-3.992941-3.275603-2.422166 2.77623-16.084327 1.369184-0.759293-8.979512 1.949398-1.972934-6.307659-2.304486c0.524956 4.084015 1.001817 8.601912 1.417279 13.548574l-15.569604 1.312902-4.678556-1.926886c0.665149 5.807263 1.298576 11.622712 1.883907 17.419741s1.019213 11.622712 1.336438 17.453511l3.805676-2.128477-0.317225-3.833305 15.819291-1.341554 1.072425 12.571317c0.274246 3.422959 2.275833 4.980431 5.966898 4.660136l20.582781-1.737574c1.916653-0.169869 3.403516-0.594541 4.400217-1.284249 1.000793-0.688685 1.808182-1.74576 2.388397-3.172249C571.109748 918.856311 570.076208 917.822772 569.362964 916.514987zM520.010953 884.271632l15.829524-1.345648 0.953721 11.302417-15.819291 1.340531L520.010953 884.271632zM522.069845 908.659065l-0.991584-11.806907 15.814174-1.349741 1.010003 11.812023L522.069845 908.659065zM539.536658 882.618992l16.334014-1.391696 0.972141 11.296277-16.352433 1.384533L539.536658 882.618992zM540.602943 895.200542l16.353456-1.378393 0.986467 11.788487-16.349363 1.378393L540.602943 895.200542zM622.340549 891.938242c-6.339382-4.815679-11.264555-10.023284-14.767332-15.59314l-0.679475-2.218528 28.40084-8.526187-6.221702-3.238764-2.521426 4.523013-20.026102 6.004761-3.856841-12.82612 1.443885-2.586918-6.906294-0.883113c1.062192 2.918469 2.89391 8.724709 5.522784 17.458627l-25.624611 7.686053 2.615571 1.349741 2.068102-1.416256 21.297049-6.392594c1.344624 5.684466 1.958608 11.245112 1.816369 16.655332-0.112564 5.41943-1.638313 10.632151-4.550643 15.626909-2.930749 5.003967-6.967692 9.620102-12.155854 13.859659l0.547469 0.911766c7.496741-5.121648 12.963243-10.834766 16.413831-17.155728 3.446495-6.331195 4.428869-14.724353 2.931772-25.223474 3.573385 5.755074 8.242731 10.886955 14.035668 15.427364 5.78782 4.541433 11.958356 7.611352 18.515702 9.230222 0.603751-2.346441 2.13871-3.960195 4.626367-4.89038l-0.287549-0.982374C636.201232 899.033847 628.671745 896.767224 622.340549 891.938242zM648.21587 858.376868l39.71656-21.716604-0.698918 9.196453 0.944512 0.057305c1.642406-6.170536 3.950985-10.075473 6.891967-11.689227l-6.91141-2.682086-1.302669 4.230348-12.547781 6.864338c1.378393-10.730389 2.926656-16.556071 4.626367-17.486256l-7.198959-0.462534c1.307785 4.947685 1.629103 11.231809 0.958838 18.841114l-25.327852 13.836123-1.486864-2.724041-1.151219 0.642636c1.443885 4.489244 1.803066 7.916297 1.071402 10.287297-0.712221 2.341325-0.49528 3.592828 0.704035 3.729951 1.170662 0.141216 2.251274-0.312108 3.200902-1.316995 0.948605-1.00591 1.298576-2.326998 1.019213-3.923356C650.429281 862.446557 649.604496 860.548324 648.21587 858.376868zM662.302703 843.043648c1.557472 2.285043 2.734274 2.474354 3.489474 0.585331 0.783853-1.883907 0.726547-3.560082-0.170892-5.03262-0.901533-1.454118-4.66423-2.738367-11.292184-3.804652l-0.688685 0.953721C657.865647 838.328253 660.749324 840.749396 662.302703 843.043648zM695.73207 852.061023l-1.737574 5.650697-14.870686 8.124028-0.613984-1.118474 1.237177-2.13871-2.586918 0.23536c2.473331-4.306072 4.480035-7.54893 5.995551-9.734712 1.524726-2.200108 3.219321-3.621481 5.079692-4.248767l-7.241938-2.209318-1.322112 3.663436-26.711362 14.605649 2.857071 0.774643c1.136893-1.208525 2.581802-2.275833 4.27742-3.219321l20.445658-11.174504-4.428869 11.217483-3.285836 0.047072c1.302669 2.02103 2.323928 3.715625 3.068895 5.065366l-24.388457 13.331633 2.841721 0.802272c1.161453-1.217734 2.578732-2.294252 4.291746-3.219321l17.86795-9.781784 4.942569 9.045003c0.817622 1.50119 0.590448 2.559289-0.693802 3.15383-1.264806 0.603751-3.965312 1.732457-8.110725 3.408633l0.49528 0.910743c5.688559-1.344624 9.073656-0.86367 10.172687 1.486864 3.381004-3.01159 4.078899-6.136767 2.111081-9.375531l-5.679349-10.389628 23.925922-13.071713L695.73207 852.061023zM642.512984 842.402035l-0.320295 1.076518c4.617158 2.171456 7.803733 4.342912 9.592472 6.501064 1.77032 2.157129 2.951215 2.384303 3.536546 0.693802 0.576121-1.693572 0.396019-3.440355-0.595564-5.239328C653.74377 843.639213 649.664871 842.629209 642.512984 842.402035zM282.78197 842.727447c-0.104377-0.49528 0.047072-1.02433 0.457418-1.582031l22.060435-29.410843c0.415462-0.547469 0.86367-0.859577 1.341554-0.915859 0.480954-0.065492 1.076518 0.155543 1.750877 0.661056l1.65264 1.246387 0.925069-1.246387-12.968359-9.724479c-3.281743-2.483564-6.505158-3.607154-9.668197-3.399423-3.163039 0.198521-5.755074 1.685385-7.818059 4.418636-1.65264 2.199085-2.597151 4.607948-2.832512 7.213285-0.236384 2.601244 0.868787 5.561669 3.295046 8.894577-3.323699-0.982374-5.853311-1.180895-7.605212-0.557702-1.750877 0.623193-3.337002 1.89721-4.7727 3.814886-2.068102 2.733251-2.775206 5.358031-2.142803 7.874341 0.632403 2.496867 2.615571 5.013177 5.966898 7.529487l12.151761 9.106402 0.925069-1.237177-1.397836-1.043772C283.320229 843.785545 282.885324 843.23296 282.78197 842.727447zM284.141944 806.15039c1.954515-2.592035 4.125971-4.140297 6.510274-4.602831 2.384303-0.467651 4.734838 0.173962 7.057743 1.920746l3.701299 2.781346c0.543376 0.405229 0.887206 0.877997 1.020236 1.396813 0.146333 0.524956 0 1.086751-0.406253 1.623987l-11.57564 15.428388-4.730745-3.541663c-2.729158-2.048659-4.239558-4.314259-4.541433-6.77838C280.89397 811.914674 281.876344 809.176306 284.141944 806.15039zM278.514783 839.526545c-0.552585 0.014326-1.090844-0.180102-1.642406-0.594541l-2.469238-1.841951c-2.185782-1.638313-3.582595-3.478218-4.178159-5.547343-0.595564-2.053776 0.027629-4.314259 1.87879-6.77838 1.954515-2.592035 4.073782-4.013407 6.363941-4.230348 2.299369-0.197498 4.192485 0.264013 5.708002 1.396813l5.329379 3.993964-9.559727 12.746302C279.539112 839.228763 279.062252 839.513242 278.514783 839.526545zM250.20297 817.08851c-0.037862-0.50449 0.179079-1.000793 0.64673-1.490957l24.930809-27.047006c0.467651-0.50449 0.948605-0.750083 1.430582-0.788969 0.481977-0.027629 1.029446 0.265036 1.661849 0.826831l1.1328 1.062192 1.038656-1.14201-19.280112-17.778922-8.865925 5.457292 0.594541 1.246387c2.851954-1.562589 5.429663-2.275833 7.733125-2.124384 2.313695 0.150426 4.409426 1.094938 6.302543 2.833535l4.913916 4.532223c0.49528 0.476861 0.793062 0.981351 0.883113 1.514493 0.065492 0.543376-0.11768 1.072425-0.585331 1.567705l-13.08604 14.185071-5.485945-5.04183c-1.24127-1.161453-1.803066-2.379187-1.676176-3.653203 0.132006-1.279133 0.830925-2.615571 2.111081-3.993964l0.693802-0.73678-1.1328-1.057075-10.272971 11.149944 1.1328 1.034563 1.038656-1.137916c1.170662-1.251503 2.332115-1.936095 3.470031-2.038426 1.156336-0.113587 2.346441 0.401136 3.611248 1.566682l5.471618 5.04183-10.806113 11.712763c-0.467651 0.514723-0.973164 0.74599-1.520633 0.704035-0.538259-0.028653-1.076518-0.274246-1.576915-0.741897l-5.296633-4.885264c-1.387603-1.284249-2.200108-2.918469-2.473331-4.900613-0.254803-1.992377-0.023536-4.409426 0.717338-7.213285l-1.293459-0.491187-3.814886 8.346085 18.685571 17.245779 1.038656-1.136893-1.010003-0.930185C250.600013 818.155818 250.245949 817.594023 250.20297 817.08851zM214.749504 781.871427c0.023536-0.481977 0.297782-0.958838 0.807389-1.397836l27.513634-24.312732c0.514723-0.457418 1.010003-0.669242 1.49198-0.636496 0.481977 0.027629 1.00591 0.354064 1.572822 1.004887l3.913123 4.418636 1.161453-1.039679-13.586436-15.371082-1.179872 1.010003 3.913123 4.417613c0.458441 0.51984 0.693802 1.058099 0.722454 1.591241 0.032746 0.557702-0.227174 1.052982-0.726547 1.506307l-27.503401 24.312732c-0.514723 0.444115-1.038656 0.632403-1.581008 0.538259-0.538259-0.104377-1.034563-0.405229-1.497097-0.916882l-3.903913-4.417613-1.166569 1.029446 13.586436 15.389502 1.179872-1.033539-3.914146-4.400217C214.989981 782.90906 214.725968 782.343171 214.749504 781.871427zM186.097954 746.05878c0.075725-0.481977 0.410346-0.916882 0.962931-1.302669l29.68509-21.25407c3.215228-2.303462 5.79703-3.323699 7.780197-3.040243 1.992377 0.25992 3.625574 1.289366 4.91494 3.105734 0.599657 0.840134 1.004887 1.600451 1.175779 2.313695 0.202615 0.698918 0.188288 1.349741-0.037862 1.926886-0.471744-0.095167-0.850367-0.090051-1.105171 0-0.25992 0.084934-0.529049 0.216941-0.807389 0.414439-0.684592 0.509606-1.128707 1.1328-1.316995 1.912559-0.197498 0.750083-0.027629 1.476631 0.458441 2.185782 0.410346 0.547469 0.986467 0.925069 1.750877 1.109264 0.765433 0.184195 1.567705-0.014326 2.407839-0.613984 1.113357-0.793062 1.689479-2.048659 1.723248-3.762697 0.032746-1.724271-0.693802-3.606131-2.194992-5.697769-2.082428-2.931772-4.702092-4.754281-7.836479-5.453199-3.134387-0.717338-6.241145 0.037862-9.304923 2.233877l-29.699416 21.248953c-0.556679 0.405229-1.105171 0.529049-1.633197 0.36839-0.518816-0.14224-0.981351-0.496304-1.387603-1.047866l-3.587712-5.02341-1.246387 0.89744 12.283768 17.136286 1.24127-0.887206-3.592828-5.003967C186.240193 747.120972 186.023252 746.539734 186.097954 746.05878zM166.190555 714.928782c0.11768-0.466628 0.48607-0.873903 1.080611-1.199315l31.898501-18.21792c0.580215-0.339738 1.119497-0.448208 1.591241-0.316202 0.462534 0.12689 0.906649 0.566912 1.331321 1.298576l2.940982 5.140067 1.336438-0.773619-10.188037-17.841344-1.345648 0.750083 2.926656 5.14109c0.344854 0.604774 0.467651 1.174756 0.382717 1.714038-0.089028 0.529049-0.415462 0.972141-1.020236 1.306762l-31.885198 18.218944c-0.603751 0.348947-1.151219 0.405229-1.661849 0.206708-0.51063-0.206708-0.935302-0.603751-1.27504-1.199315l-2.931772-5.135974-1.344624 0.76441 10.19213 17.853623 1.341554-0.759293-2.936889-5.122671C166.204881 716.0053 166.053432 715.40155 166.190555 714.928782zM152.259264 685.626409l33.636075-14.83794c0.63752-0.278339 1.175779-0.339738 1.623987-0.159636 0.444115 0.169869 0.850367 0.661056 1.194198 1.434675l0.825808 1.888 1.421372-0.627287-4.154623-9.408277-1.407046 0.632403 0.821715 1.86958c0.278339 0.632403 0.339738 1.216711 0.207731 1.741667-0.146333 0.523933-0.543376 0.934279-1.161453 1.213641l-31.757285 14.011108-0.216941-0.481977 27.115568-33.467229-0.559748-1.283226-36.945447 16.292058c-0.623193 0.287549-1.179872 0.301875-1.671059 0.042979-0.481977-0.25071-0.858554-0.694825-1.14201-1.307785l-0.830925-1.889023-1.416256 0.623193 4.158716 9.400091 1.411139-0.60989-0.835018-1.87879c-0.344854-0.783853-0.429789-1.396813-0.25071-1.855254 0.179079-0.462534 0.576121-0.816598 1.199315-1.089821l27.526937-12.141528 0.207731 0.462534-23.826662 29.42517 3.28072 7.444553 1.411139-0.627287-0.693802-1.591241c-0.397043-0.88823-0.514723-1.576915-0.354064-2.077312C151.234935 686.286442 151.636071 685.895539 152.259264 685.626409zM180.414511 649.426953l-0.00614 0.008186 0.058328 0.13303L180.414511 649.426953zM155.573753 644.74328c5.211698-1.684362 9.611915-4.375657 13.19451-8.05342 3.592828-3.677762 4.593622-7.963369 3.007497-12.855796-0.425695-1.301645-0.962931-2.430352-1.633197-3.393283-0.661056-0.949628-1.572822-1.789763-2.700505-2.496867-0.420579-0.227174-0.726547-0.481977-0.925069-0.779759-0.188288-0.296759-0.325411-0.62217-0.433882-0.939395-0.113587-0.329505-0.150426-0.62217-0.150426-0.896416s0.023536-0.595564 0.084934-0.977257l-12.227486 3.941775c-0.821715 0.25992-1.539053 0.217964-2.200108-0.103354-0.641613-0.330528-1.085728-0.916882-1.359974-1.737574l-0.396019-1.226944-1.482771 0.471744 3.970428 12.283768 1.477654-0.471744-0.476861-1.49198c-0.316202-0.962931-0.316202-1.784646 0.019443-2.436492 0.339738-0.661056 0.981351-1.131777 1.968841-1.454118l8.317433-2.690272c1.524726-0.312108 2.823302-0.070608 3.889587 0.759293 1.071402 0.831948 1.907443 2.13871 2.478448 3.932566 1.165546 3.569292-0.052189 6.798846-3.621481 9.658987-3.587712 2.888793-7.6574 5.04183-12.240789 6.519484-6.855128 2.213411-12.283768 2.841721-16.282848 1.888-4.003174-0.967024-6.40078-2.670829-7.184633-5.107321-0.704035-2.119267-0.49528-4.163833 0.576121-6.132674 1.080611-1.972934 3.181459-3.992941 6.288217-6.051833l-0.973164-1.311879-10.367115 5.514597c0.604774 0.159636 1.105171 0.452301 1.50119 0.868787 0.405229 0.405229 0.679475 0.849344 0.845251 1.344624 0.099261 0.325411 0.11768 1.222851 0.052189 2.696412-0.065492 1.458211 0.047072 2.675946 0.3776 3.65832 1.302669 4.077875 4.564969 6.755868 9.763364 8.058536C143.913179 647.033439 149.530107 646.692678 155.573753 644.74328zM154.864602 560.593741c1.450025-2.493797 2.02103-5.273097 1.694595-8.356318-0.316202-2.879584-1.571798-5.381567-3.781116-7.468089-2.200108-2.105964-5.013177-2.964518-8.42181-2.578732l-29.638017 3.163039c-0.679475 0.070608-1.217734-0.084934-1.595334-0.466628-0.397043-0.382717-0.632403-0.911766-0.698918-1.591241l-0.160659-1.539053-1.539053 0.159636 1.000793 9.15859 1.51961-0.14224-0.160659-1.528819c-0.099261-0.850367 0.00921-1.477654 0.312108-1.841951 0.311085-0.3776 0.788969-0.603751 1.482771-0.679475l29.627784-3.186576c2.558265-0.274246 4.787026 0.391926 6.685259 1.997494 1.89721 1.613754 2.983961 3.700275 3.247974 6.259564 0.25992 2.393513-0.137123 4.380774-1.166569 5.952572-1.02433 1.591241-3.252067 2.543939-6.65149 2.921539l-29.90203 3.206018c-0.679475 0.069585-1.208525-0.084934-1.595334-0.467651s-0.613984-0.906649-0.693802-1.604544l-0.127913-1.284249-1.534959 0.159636 1.217734 11.245112 1.515516-0.150426-0.132006-1.284249c-0.094144-0.845251 0.00921-1.454118 0.306992-1.840928 0.316202-0.373507 0.798179-0.604774 1.486864-0.670266l29.892821-3.211135C150.814356 564.513004 153.410484 563.077306 154.864602 560.593741zM153.798317 505.152035l-0.001023 0.001023 0.001023 0.128937L153.798317 505.152035zM111.800807 530.176988c-0.01842-0.981351 0.132006-1.660826 0.481977-2.057869 0.330528-0.405229 0.840134-0.604774 1.529843-0.618077l36.728506-0.585331c0.679475-0.005117 1.199315 0.150426 1.553379 0.481977 0.335644 0.339738 0.523933 0.949628 0.543376 1.804089l0.032746 2.068102 1.553379-0.028653-0.164752-10.324136-1.562589 0.019443 0.047072 2.072195c0 0.684592-0.150426 1.255597-0.500397 1.685385-0.330528 0.444115-0.840134 0.656963-1.51961 0.670266l-34.679847 0.561795-0.005117-0.509606 37.959543-20.261463-0.017396-1.417279-40.33566 0.651846c-0.684592 0.014326-1.203408-0.184195-1.548262-0.608867-0.348947-0.429789-0.538259-0.986467-0.542352-1.678222l-0.032746-2.068102-1.553379 0.027629 0.165776 10.32209 1.548262-0.019443-0.028653-2.065032c-0.019443-0.856507 0.14224-1.471514 0.471744-1.813299 0.348947-0.35918 0.850367-0.531096 1.539053-0.535189l30.043247-0.493234 0.019443 0.51677-33.381271 17.825994 0.127913 8.156774 1.557472-0.032746L111.800807 530.176988zM113.000122 478.143914c0.104377-0.852414 0.312108-1.437745 0.708128-1.746784 0.354064-0.309038 0.88823-0.429789 1.567705-0.373507l36.605709 3.549849c0.680499 0.065492 1.184989 0.285502 1.49198 0.656963 0.301875 0.372483 0.405229 0.991584 0.325411 1.853208l-0.576121 5.877871 1.524726 0.160659 1.983167-20.512173-1.51961-0.13917-0.566912 5.891174c-0.065492 0.677429-0.301875 1.222851-0.675382 1.605567-0.38681 0.405229-0.911766 0.566912-1.600451 0.49835l-36.601616-3.533476c-0.679475-0.077771-1.165546-0.340761-1.472538-0.798179-0.297782-0.465604-0.415462-1.02433-0.349971-1.706875l0.572028-5.907547-1.520633-0.12996-1.983167 20.502963 1.524726 0.144286L113.000122 478.143914zM116.71984 446.870654c0.169869-0.835018 0.595564-1.411139 1.25662-1.716084 0.679475-0.295735 1.614777-0.410346 2.823302-0.337691l39.900755-1.692548 0.301875-1.51347-35.94056-17.974373c-1.279133-0.599657-2.100848-1.251503-2.487657-1.947352-0.38681-0.686638-0.509606-1.3743-0.3776-2.039449l0.198521-1.010003-1.5104-0.303922-1.827625 9.06854 1.515516 0.309038 0.160659-0.74599c0.198521-1.010003 0.632403-1.623987 1.284249-1.840928 0.655939-0.212848 1.539053-0.042979 2.648316 0.531096l26.536376 13.357216-0.104377 0.50756-30.228465 1.107217c-0.883113-0.00921-1.543146-0.179079-1.992377-0.545422-0.457418-0.343831-0.603751-0.934279-0.433882-1.779529l0.207731-1.004887-1.524726-0.314155-2.180666 10.843976 1.51961 0.309038L116.71984 446.870654zM125.775076 405.702022c0.287549-0.877997 0.641613-1.450025 1.076518-1.697665 0.429789-0.245593 0.972141-0.26913 1.629103-0.070608l35.075867 10.914584c0.64673 0.198521 1.081635 0.521886 1.316995 0.951675 0.227174 0.431835 0.207731 1.040702-0.037862 1.867534l-0.462534 1.466398 1.49198 0.467651 7.780197-25.025976-8.743128-5.681396-0.868787 1.074472c2.62478 1.89107 4.375657 3.916193 5.240351 6.080485 0.859577 2.13871 0.896416 4.449335 0.14224 6.89913l-1.992377 6.375198c-0.207731 0.663102-0.538259 1.143033-0.986467 1.446955-0.458441 0.304945-1.010003 0.356111-1.665942 0.144286l-18.392906-5.724375 2.209318-7.104815c0.500397-1.645476 1.369184-2.674922 2.568499-3.108804 1.217734-0.424672 2.714831-0.36839 4.508687 0.198521l0.977257 0.304945 0.462534-1.484817-14.46034-4.501524-0.462534 1.479701 1.468444 0.460488c1.633197 0.50756 2.747577 1.25662 3.332908 2.252297 0.585331 0.986467 0.623193 2.297322 0.113587 3.925403l-2.200108 7.126304-15.19712-4.732791c-0.655939-0.212848-1.080611-0.556679-1.279133-1.069355-0.207731-0.51677-0.207731-1.098008 0-1.739621l2.13871-6.873548c0.561795-1.808182 1.685385-3.240811 3.370771-4.338818 1.680269-1.080611 3.950985-1.89721 6.80294-2.440585l-0.099261-1.38351-9.191336 0.112564-7.553023 24.272823 1.481747 0.457418L125.775076 405.702022zM138.978796 366.003881c0.335644-0.783853 0.722454-1.277086 1.175779-1.439792 0.448208-0.184195 0.991584-0.141216 1.629103 0.125867l33.768081 14.474666c0.623193 0.26913 1.029446 0.63752 1.208525 1.076518 0.179079 0.450255 0.104377 1.064238-0.245593 1.862417l-0.595564 1.411139 1.416256 0.603751 4.65502-10.862395-1.416256-0.594541-0.603751 1.401929c-0.274246 0.63752-0.656963 1.078565-1.1328 1.338485-0.481977 0.252757-1.038656 0.24764-1.671059-0.01842l-16.98586-7.284917 2.133593-4.989641 23.812335 0.464581 2.841721-6.613628-1.411139-0.603751-0.603751 1.411139c-0.198521 0.469698-0.505513 0.852414-0.911766 1.14201-0.406253 0.299829-0.981351 0.462534-1.746784 0.51677l-20.50808-0.401136c0.62831-2.330068 0.462534-4.742001-0.538259-7.213285-0.991584-2.478448-3.058662-4.387937-6.203282-5.733585-3.15383-1.352811-5.943362-1.38351-8.374738-0.086981-2.411933 1.296529-4.3951 3.753487-5.948479 7.371898l-5.764284 13.45443 1.411139 0.599657L138.978796 366.003881zM142.439618 357.978091l1.105171-2.594081c1.269923-2.988054 2.964518-4.869914 5.070482-5.636371 2.095731-0.778736 4.494361-0.594541 7.175423 0.554632 2.988054 1.291412 4.853541 3.021823 5.603625 5.193279 0.741897 2.183735 0.608867 4.461615-0.401136 6.815219l-2.223644 5.178953-15.35164-6.582929c-0.632403-0.267083-1.01512-0.659009-1.166569-1.184989C142.09988 359.187639 142.156162 358.604354 142.439618 357.978091zM163.636383 332.584748c2.841721 1.591241 5.348821 2.006703 7.53972 1.257643 2.166339-0.733711 5.282307-2.628874 9.333576-5.681396 3.016707-2.233877 5.623068-3.668553 7.855922-4.295839 2.218528-0.618077 4.078899-0.523933 5.574972 0.314155 2.850931 1.578961 4.659113 3.427052 5.448082 5.544273 0.802272 2.102894 0.481977 4.427846-0.935302 6.974855-1.336438 2.388397-3.238764 4.133134-5.692652 5.207605-2.478448 1.083681-5.872754 1.107217-10.206456 0.056282l-0.297782 1.605567 12.000312 4.335748c-0.113587-0.845251-0.207731-1.578961-0.245593-2.192945-0.047072-0.608867 0.056282-1.143033 0.311085-1.586125 0.424672-0.76441 1.24127-1.62808 2.469238-2.605338 1.217734-0.986467 2.261507-2.218528 3.092431-3.731998 2.00568-3.592828 2.483564-6.90834 1.425466-9.949606-1.057075-3.035126-2.917446-5.313006-5.617951-6.810103-2.554172-1.418302-5.178953-1.857301-7.944949-1.331321-2.743484 0.529049-5.863545 2.167363-9.351995 4.935406-4.371564 3.245927-7.321756 5.081739-8.832156 5.497201-1.511423 0.438998-3.092431 0.189312-4.749164-0.720408-1.804089-1.010003-3.186576-2.480494-4.187369-4.40431-1.000793-1.918699-0.688685-4.307096 0.887206-7.144724 1.246387-2.24718 2.823302-3.755534 4.739954-4.562922 1.916653-0.788969 4.824889-0.977257 8.724709-0.576121l0.179079-1.366114-9.706059-4.225231c0.433882 0.627287 0.651846 1.187035 0.661056 1.681292 0.00921 0.511653-0.10847 0.981351-0.36839 1.429559-0.325411 0.599657-1.1328 1.423419-2.388397 2.485611-1.27504 1.060145-2.312672 2.324952-3.15383 3.828188-1.925862 3.437286-2.39863 6.65149-1.407046 9.664104C159.761122 329.206814 161.374876 331.352687 163.636383 332.584748zM181.783695 285.405215c0.490164-0.691755 0.972141-1.098008 1.454118-1.190105 0.467651-0.077771 1.000793 0.072655 1.548262 0.473791l30.114878 21.071921c0.561795 0.401136 0.88209 0.821715 0.967024 1.314948 0.084934 0.469698-0.112564 1.065262-0.613984 1.759063l-3.390213 4.855588 1.27504 0.895393 11.802814-16.85897-1.284249-0.890276-3.390213 4.855588c-0.396019 0.558725-0.86367 0.908696-1.378393 1.076518-0.523933 0.141216-1.076518 0.027629-1.633197-0.36532l-30.109762-21.073968c-0.566912-0.391926-0.86367-0.858554-0.896416-1.407046-0.037862-0.550539 0.141216-1.116427 0.538259-1.681292l3.394307-4.839215-1.269923-0.890276-11.792581 16.861016 1.264806 0.89437L181.783695 285.405215zM207.559754 264.707824c-1.963725-3.488451-2.964518-5.872754-3.00238-7.154957-0.019443-1.269923 0.7552-2.827395 2.322905-4.630461 0.778736-0.908696 1.293459-1.367137 1.539053-1.385557 0.236384-0.016373 0.86367 0.415462 1.912559 1.324158l27.234271 23.5166c0.505513 0.446162 0.793062 0.913812 0.821715 1.39272s-0.23536 1.052982-0.793062 1.701758l-1.506307 1.744737 1.170662 1.010003 8.728802-10.103102-1.170662-1.020236-1.511423 1.739621c-0.433882 0.525979-0.930185 0.830925-1.472538 0.927115-0.538259 0.118704-1.071402-0.070608-1.595334-0.511653l-27.022447-23.359011c-1.161453-1.010003-1.755993-1.633197-1.775436-1.864464-0.019443-0.24764 0.529049-1.010003 1.647523-2.315742 1.571798-1.812275 2.968611-2.697435 4.187369-2.669806 1.208525 0.040932 3.625574 0.706081 7.251148 2.015913l0.63752-1.134847-8.748245-4.834098-15.956414 18.461467 5.891174 8.154727L207.559754 264.707824zM228.024855 229.129514c0.623193-0.585331 1.298576-0.870834 2.025123-0.845251 0.717338 0.01842 1.50119 0.212848 2.350534 0.603751l21.834284 10.454096 9.144264 9.708106c0.471744 0.502443 0.688685 0.9967 0.684592 1.474584-0.014326 0.481977-0.335644 1.020236-0.958838 1.609661l-1.671059 1.578961 1.057075 1.125637 9.725502-9.165754-1.067308-1.130753-1.680269 1.591241c-0.491187 0.469698-1.010003 0.715291-1.567705 0.773619-0.547469 0.042979-1.043772-0.184195-1.5104-0.686638l-10.206456-10.833743-8.119935-20.195971c-0.444115-1.235131-0.632403-2.287089-0.543376-3.200902 0.084934-0.903579 0.448208-1.642406 1.062192-2.237971l0.566912-0.521886-1.066285-1.1328-7.269567 6.850012 1.047866 1.137916 0.3776-0.348947c0.873903-0.821715 1.642406-1.203408 2.312672-1.116427 0.651846 0.082888 1.284249 0.561795 1.860371 1.420349l7.780197 18.709107-0.425695 0.396019-18.024515-9.063423c-0.953721-0.511653-1.548262-1.010003-1.774413-1.499144-0.216941-0.49835 0.037862-1.092891 0.793062-1.803066l1.118474-1.052982-1.071402-1.137916-8.223289 7.758708 1.066285 1.1328L228.024855 229.129514zM314.685587 205.581192c4.555759 2.02103 8.516977 1.992377 11.873422-0.072655 3.497661-2.155083 5.372358-5.665023 5.580089-10.522658 0.222057-4.862751-1.506307-10.286274-5.183046-16.272615-3.233648-5.254677-7.086395-9.052167-11.561313-11.42726-4.474918-2.388397-8.611122-2.39863-12.401448-0.064468-3.65832 2.245134-5.53711 5.811356-5.631254 10.704806-0.122797 4.89038 1.595334 10.184967 5.098111 15.874549C306.046836 199.635783 310.115502 203.570395 314.685587 205.581192zM303.936779 168.740122c2.89391-1.791809 5.952572-1.450025 9.172917 0.991584 3.228531 2.451842 6.429433 6.29538 9.677407 11.550057 4.041036 6.573719 6.15621 11.651364 6.369058 15.241123 0.207731 3.597945-0.930185 6.167466-3.403516 7.682983-2.322905 1.435699-5.136997 1.203408-8.4126-0.712221-3.28072-1.889023-6.855128-5.984295-10.716063-12.258185-3.587712-5.844102-5.561669-10.66899-5.901407-14.482853C300.385906 172.941817 301.448098 170.264848 303.936779 168.740122zM328.224951 155.002236c0.821715-0.391926 1.463328-0.527003 1.954515-0.36839 0.462534 0.146333 0.868787 0.538259 1.166569 1.151219l15.956414 33.133631c0.287549 0.613984 0.363274 1.14508 0.207731 1.619894-0.164752 0.457418-0.627287 0.858554-1.396813 1.236154l-1.633197 0.788969 0.675382 1.38351 11.136641-5.367241-0.675382-1.381463-1.614777 0.76748c-0.623193 0.303922-1.190105 0.38681-1.727341 0.261966-0.543376-0.106424-0.968048-0.484024-1.25662-1.107217l-8.162914-16.914228 7.638981-3.672646c1.543146-0.750083 2.883677-0.828878 4.021593-0.234337 1.137916 0.590448 2.157129 1.808182 3.040243 3.66139l0.457418 0.923022 1.3743-0.663102-6.458085-13.400195-1.387603 0.668219 0.561795 1.14508c0.751107 1.541099 0.925069 2.836605 0.576121 3.866051-0.35918 1.026376-1.312902 1.909489-2.861164 2.65548l-7.623631 3.677762-7.142677-14.835893c-0.288572-0.618077-0.321318-1.179872-0.090051-1.673106 0.231267-0.491187 0.661056-0.887206 1.288343-1.187035l6.467295-3.128247c1.992377-0.958838 4.145413-1.230014 6.448876-0.802272 2.289136 0.415462 4.64581 1.564635 7.081279 3.446495l0.915859-1.02433-6.807033-6.992251-24.294312 11.703553 0.675382 1.3743L328.224951 155.002236zM405.123342 124.429941c0.873903-0.227174 1.543146-0.216941 1.978051 0.039909 0.444115 0.245593 0.74599 0.696872 0.906649 1.362021l8.837272 35.682687c0.160659 0.650823 0.113587 1.208525-0.127913 1.609661-0.249687 0.420579-0.793062 0.720408-1.61887 0.937348l-1.755993 0.433882 0.35918 1.479701 11.991102-2.973728-0.3776-1.482771-1.741667 0.433882c-0.655939 0.169869-1.251503 0.135076-1.746784-0.092098-0.49528-0.231267-0.825808-0.677429-1.000793-1.347694l-4.064572-16.45681 7.722892-1.909489c3.323699-0.821715 5.944386-2.523473 7.855922-5.112438 1.916653-2.586918 2.39863-5.802146 1.454118-9.626241-0.783853-3.165086-2.558265-5.501294-5.339612-7.024997-2.785439-1.51347-6.268774-1.75804-10.456143-0.724501l-14.842033 3.675716 0.35918 1.496074L405.123342 124.429941zM412.26602 123.19788c0.330528-0.444115 0.825808-0.748037 1.49198-0.904603l3.484358-0.873903c3.493567-0.861624 6.222725-0.695848 8.18645 0.487094 1.978051 1.194198 3.370771 3.462868 4.197602 6.788613 0.910743 3.65832 0.585331 6.481621-0.958838 8.455579-1.529843 1.970888-3.549849 3.2623-6.04774 3.880377l-6.217608 1.544169-4.391007-17.73185C411.841348 124.174114 411.935492 123.617435 412.26602 123.19788zM454.11208 151.09116c3.370771 3.674693 6.996344 5.249561 10.905374 4.704139 4.069689-0.576121 7.18054-3.049452 9.347902-7.402597 2.153036-4.373611 2.738367-10.034541 1.774413-16.980743-0.858554-6.111185-2.860141-11.138688-6.004761-15.107069-3.143597-3.970428-6.940063-5.641487-11.339256-5.027503-4.239558 0.590448-7.388271 3.108804-9.460466 7.53665-2.058892 4.442172-2.62478 9.968026-1.690502 16.579607C448.589296 142.182256 450.741309 147.413398 454.11208 151.09116zM452.894346 119.083166c1.217734-3.621481 3.266393-5.637394 6.15621-6.04774 3.385097-0.467651 6.056949 1.060145 8.015557 4.588505 1.963725 3.538593 3.370771 8.354272 4.234441 14.453177 1.066285 7.632841 0.968048 13.154601-0.278339 16.529465-1.27504 3.359514-3.332908 5.254677-6.221702 5.66093-2.705622 0.38681-5.173836-0.958838-7.421017-4.027733-2.237971-3.056616-3.880377-8.232498-4.89038-15.517415C451.525162 127.934764 451.666378 122.718973 452.894346 119.083166zM489.868445 126.034485c1.779529 1.479701 5.013177 3.157923 9.710153 5.04183 3.488451 1.413186 6.076392 2.895957 7.756661 4.472871 1.681292 1.569752 2.558265 3.199878 2.615571 4.906753 0.132006 3.25309-0.50449 5.771447-1.889023 7.529487-1.396813 1.77032-3.549849 2.716878-6.467295 2.823302-2.737344 0.106424-5.220908-0.618077-7.421017-2.160199-2.200108-1.557472-3.984754-4.447289-5.343705-8.69094l-1.51961 0.578168 2.539846 12.517081c0.665149-0.542352 1.246387-0.991584 1.746784-1.349741 0.500397-0.3776 1.010003-0.558725 1.524726-0.585331 0.86367-0.032746 2.030239 0.229221 3.507894 0.773619 1.473561 0.556679 3.078105 0.798179 4.787026 0.733711 4.120854-0.162706 7.193843-1.472538 9.261944-3.948939 2.049682-2.478448 3.016707-5.258771 2.908236-8.332782-0.107447-2.901073-1.104147-5.405103-2.997264-7.466042-1.874697-2.077312-4.90573-3.894703-9.106402-5.437849-5.052063-2.048659-8.143471-3.594875-9.31004-4.683672-1.151219-1.065262-1.765203-2.558265-1.831718-4.437056-0.065492-2.066055 0.453325-4.012384 1.591241-5.859451 1.1328-1.842974 3.327792-2.839675 6.594185-2.955308 2.569522-0.106424 4.692882 0.460488 6.374174 1.678222 1.676176 1.226944 3.356444 3.596921 5.042853 7.135514l1.274016-0.566912-1.434675-10.480702c-0.325411 0.700965-0.689708 1.190105-1.105171 1.461281-0.428765 0.26913-0.887206 0.415462-1.406023 0.429789-0.689708 0.032746-1.822508-0.222057-3.381004-0.760317-1.566682-0.540306-3.210112-0.781806-4.924149-0.724501-3.932566 0.155543-6.934946 1.429559-8.993838 3.814886-2.062985 2.393513-3.03001 4.871961-2.945075 7.449669C487.157707 122.19197 488.107335 124.567064 489.868445 126.034485zM531.369651 111.199615c0.982374-0.793062 2.681062-1.121544 5.079692-0.962931 1.194198 0.072655 1.889023 0.197498 2.039449 0.391926 0.155543 0.174985 0.197498 0.944512 0.10847 2.315742l-2.28095 35.871999c-0.037862 0.679475-0.245593 1.187035-0.613984 1.496074-0.355087 0.330528-0.962931 0.460488-1.831718 0.401136l-2.318812-0.12996-0.099261 1.541099 13.373589 0.847298 0.080841-1.567705-2.323928-0.13917c-0.679475-0.042979-1.226944-0.240477-1.633197-0.613984-0.405229-0.3776-0.585331-0.898463-0.538259-1.581008l2.257413-35.614126c0.094144-1.541099 0.24457-2.381234 0.414439-2.551102 0.185218-0.158612 1.1328-0.184195 2.841721-0.064468 2.393513 0.141216 3.937682 0.722454 4.65502 1.701758 0.708128 0.9967 1.63422 3.321652 2.77623 7.001461l1.284249-0.174985-1.416256-9.881045-24.360827-1.546216-2.917446 9.599635 1.511423 0.35918C529.084609 114.225531 530.378068 111.997793 531.369651 111.199615zM567.352167 154.175405c0.854461 0.144286 1.936095 0.62831 3.266393 1.454118 1.331321 0.832971 2.836605 1.387603 4.541433 1.669012 4.040013 0.682545 7.321756 0.00921 9.827833-2.00568 2.511193-2.001587 4.022617-4.53427 4.523013-7.565303 0.481977-2.87242 0.019443-5.506411-1.396813-7.90504-1.435699-2.422166-4.031826-4.798283-7.803733-7.173376-4.53734-3.016707-7.261381-5.16258-8.172123-6.453992-0.915859-1.281179-1.217734-2.856048-0.910743-4.709255 0.334621-2.025123 1.246387-3.842515 2.733251-5.41022 1.476631-1.584078 3.823072-2.095731 7.034207-1.564635 2.534729 0.429789 4.502547 1.397836 5.901407 2.943029 1.396813 1.526773 2.558265 4.201695 3.483334 8.011464l1.349741-0.304945 0.73678-10.549264c-0.444115 0.618077-0.906649 1.010003-1.369184 1.203408-0.471744 0.165776-0.958838 0.227174-1.468444 0.12996-0.675382-0.101307-1.714038-0.585331-3.148713-1.434675-1.426489-0.840134-2.964518-1.397836-4.66423-1.692548-3.885494-0.641613-7.072069-0.00921-9.56996 1.918699-2.5071 1.938142-3.961218 4.174066-4.38589 6.692423-0.537236 3.210112-0.094144 5.717212 1.341554 7.511067 1.439792 1.808182 4.272303 4.104481 8.497535 6.900154 3.1262 2.081405 5.363148 4.059456 6.722098 5.946432 1.322112 1.87879 1.851161 3.654226 1.567705 5.346775-0.529049 3.228531-1.661849 5.54939-3.381004 6.998391-1.723248 1.446955-4.012384 1.930979-6.897084 1.446955-2.686179-0.446162-4.970198-1.667989-6.811126-3.620457-1.851161-1.959631-3.003404-5.157463-3.489474-9.581216l-1.599428 0.245593-0.052189 12.771885c0.760317-0.391926 1.421372-0.705058 1.987261-0.968048C566.303278 154.175405 566.842561 154.097634 567.352167 154.175405zM641.233851 172.705434l-0.712221-0.280386c-1.119497-0.438998-1.666966-1.149173-1.639337-2.166339 0.019443-0.980327 0.462534-2.140757 1.349741-3.446495l5.854335-8.187473 10.45205 4.090155-1.595334 11.514241c-0.113587 1.232061-0.406253 2.084475-0.850367 2.541893-0.462534 0.469698-1.161453 0.527003-2.124384 0.14224l-0.961908-0.373507-0.566912 1.450025 10.320043 4.02671 0.576121-1.444908-0.717338-0.290619c-0.632403-0.23536-1.12359-0.663102-1.434675-1.24127-0.320295-0.580215-0.467651-1.421372-0.415462-2.494821l5.684466-41.385573-4.107551-0.202615-23.590278 32.978089c-0.524956 0.890276-1.119497 1.442862-1.7519 1.654686-0.632403 0.207731-1.264806 0.193405-1.906419-0.059352l-0.708128-0.280386-0.576121 1.451048 8.837272 3.459798L641.233851 172.705434zM659.815045 139.439796l0.179079 0.045025-3.00238 21.739117-9.975189-3.901867L659.815045 139.439796zM676.017052 187.734732l-1.826602-0.951675c-0.618077-0.316202-1.043772-0.715291-1.269923-1.220804-0.216941-0.50756-0.180102-1.057075 0.14224-1.661849l15.857153-30.832216 0.476861 0.240477-0.037862 43.031049-0.132006-0.059352 1.378393 0.701988 18.454304-35.850509c0.316202-0.608867 0.750083-0.977257 1.279133-1.083681 0.529049-0.106424 1.104147 0 1.718131 0.309038l1.841951 0.927115 0.707105-1.37123-9.171893-4.713348-0.704035 1.38351 1.821485 0.941442c0.774643 0.382717 1.226944 0.811482 1.379417 1.281179 0.137123 0.453325 0.061398 1.00591-0.245593 1.595334l-13.751189 26.727735-0.453325-0.240477 0.028653-37.823444-7.247054-3.741207-0.708128 1.38351 1.549286 0.807389c0.868787 0.433882 1.396813 0.908696 1.582031 1.385557 0.189312 0.469698 0.12689 1.022283-0.185218 1.63115l-16.805758 32.659841c-0.321318 0.613984-0.694825 0.995677-1.171686 1.14508-0.462534 0.146333-1.076518 0.019443-1.840928-0.38681l-1.831718-0.927115-0.708128 1.373277 9.1678 4.713348L676.017052 187.734732zM725.553259 168.9499c0.089028 0.467651-0.048095 0.99363-0.410346 1.564635l-20.063965 30.759561c-0.367367 0.585331-0.783853 0.915859-1.251503 1.026376-0.438998 0.110517-1.004887-0.049119-1.694595-0.484024l-1.396813-0.927115-0.849344 1.309832 9.162684 5.979178c4.967128 3.247974 9.739828 4.160763 14.308891 2.745531 4.555759-1.416256 9.007141-5.428639 13.313214-12.021801 3.927449-6.033413 5.514597-11.346419 4.720511-15.942087-0.769526-4.598738-3.375887-8.349155-7.818059-11.255345l-9.67843-6.309706-0.858554 1.300622 1.288343 0.842181C725.047746 168.005388 725.453998 168.475086 725.553259 168.9499zM730.170416 171.96456c0.674359 0.039909 1.533936 0.391926 2.52552 1.045819 3.300162 2.145873 5.052063 5.084808 5.278213 8.81169 0.231267 3.712555-1.661849 8.658194-5.684466 14.82566-4.498454 6.870478-8.587586 10.806113-12.256138 11.771091-3.691065 0.953721-7.133468 0.405229-10.29139-1.65264-0.704035-0.465604-1.179872-0.981351-1.426489-1.546216-0.23536-0.572028-0.180102-1.137916 0.197498-1.710968l20.059871-30.747281C728.947566 172.192757 729.475592 171.926698 730.170416 171.96456zM775.580652 260.334213l-1.647523-1.633197c-0.481977-0.493234-0.750083-0.9967-0.816598-1.548262-0.065492-0.535189 0.141216-1.052982 0.632403-1.551332l25.199938-25.346271c1.081635-1.087774 1.746784-1.638313 1.991354-1.638313 0.245593 0 0.977257 0.603751 2.186805 1.808182 1.703805 1.701758 2.496867 3.151783 2.38328 4.373611-0.112564 1.208525-0.944512 3.573385-2.520403 7.093559l1.099031 0.715291 5.415336-8.362458-17.36346-17.264199-8.526187 5.299703 0.906649 1.266853c3.635807-1.696642 6.089695-2.530636 7.364735-2.480494 1.274016 0.064468 2.755764 0.946558 4.465708 2.629897 0.854461 0.847298 1.288343 1.39272 1.288343 1.633197 0.010233 0.243547-0.48607 0.847298-1.458211 1.833765l-25.38004 25.527396c-0.481977 0.48914-0.958838 0.734734-1.444908 0.734734-0.48607 0-1.038656-0.309038-1.642406-0.913812l-1.6465-1.629103-1.090844 1.087774 9.508561 9.460466L775.580652 260.334213zM819.088562 250.342652l-28.40084 23.27203c-0.529049 0.428765-1.047866 0.627287-1.511423 0.578168-0.490164-0.047072-1.010003-0.405229-1.539053-1.071402l-0.982374-1.174756-1.208525 0.986467 16.617469 20.264533 9.521864-4.161786-0.419556-1.309832c-3.025916 1.154289-5.675256 1.489934-7.940856 1.010003-2.266623-0.455371-4.205788-1.696642-5.825682-3.674693l-4.239558-5.166673c-0.444115-0.527003-0.661056-1.074472-0.670266-1.623987 0-0.545422 0.254803-1.029446 0.779759-1.461281l14.894222-12.205996 4.720511 5.753027c1.081635 1.336438 1.482771 2.62478 1.179872 3.869121-0.325411 1.246387-1.199315 2.469238-2.662643 3.667529l-0.793062 0.653893 0.991584 1.194198 11.736299-9.611915-0.981351-1.208525-1.199315 0.981351c-1.316995 1.083681-2.563382 1.586125-3.720741 1.541099-1.14201-0.047072-2.25639-0.734734-3.342118-2.062985l-4.730745-5.77861 12.31242-10.079566c0.529049-0.438998 1.066285-0.590448 1.599428-0.484024 0.542352 0.11768 1.02433 0.446162 1.459235 0.968048l4.559852 5.558599c1.184989 1.461281 1.789763 3.186576 1.766226 5.202489-0.019443 2.00568-0.580215 4.355191-1.681292 7.019881l1.209548 0.680499 4.942569-7.739265-16.107863-19.646456-1.203408 0.9967 0.887206 1.049912c0.576121 0.715291 0.854461 1.309832 0.821715 1.822508C819.900044 249.433956 819.598168 249.9057 819.088562 250.342652zM845.873602 282.156218c-0.084934 0.49528-0.415462 0.928139-0.991584 1.309832L814.197158 303.721373c-0.566912 0.370437-1.105171 0.521886-1.567705 0.429789-0.476861-0.106424-0.953721-0.511653-1.416256-1.226944l-0.991584-1.50426-1.279133 0.845251 14.572904 22.081924 9.657964-3.604084-0.287549-1.354857c-3.053546 0.9967-5.659907 1.184989-7.818059 0.556679-2.166339-0.630357-3.922333-1.938142-5.225001-3.943822l-3.829212-5.773494c-0.38681-0.580215-0.551562-1.139963-0.49528-1.689479 0.052189-0.547469 0.36839-0.9967 0.935302-1.38351l30.699186-20.259416c0.572028-0.3776 1.119497-0.484024 1.639337-0.309038 0.529049 0.162706 0.977257 0.531096 1.349741 1.100054l0.981351 1.503237 1.289366-0.845251-6.807033-10.296507-1.269923 0.849344 0.916882 1.369184C845.741595 281.032628 845.958536 281.653775 845.873602 282.156218zM866.419544 317.961702l-32.55444 16.991999c-0.599657 0.314155-1.136893 0.391926-1.586125 0.255827-0.472767-0.153496-0.89744-0.604774-1.302669-1.362021l-0.712221-1.3743-1.36509 0.720408L841.040527 356.451318l10.18292-2.117221-0.151449-1.376347c-3.204995 0.502443-5.867638 0.299829-7.992021-0.630357-2.101871-0.928139-3.76372-2.523473-4.957919-4.803399l-3.087315-5.936199c-0.330528-0.599657-0.434905-1.170662-0.330528-1.710968 0.112564-0.547469 0.471744-0.968048 1.086751-1.281179l17.098423-8.92016 3.436262 6.604418c0.784876 1.503237 0.906649 2.850931 0.349971 4.012384-0.547469 1.150196-1.661849 2.169409-3.332908 3.040243l-0.916882 0.478907 0.717338 1.376347 13.483082-7.03216-0.726547-1.38351-1.36509 0.720408c-1.523703 0.797156-2.850931 1.047866-3.960195 0.76441-1.12359-0.285502-2.081405-1.190105-2.870374-2.707668l-3.446495-6.600325 14.096043-7.352455c0.595564-0.323365 1.161453-0.36532 1.661849-0.13917 0.505513 0.212848 0.906649 0.632403 1.208525 1.24127l3.347235 6.396687c0.868787 1.665942 1.109264 3.488451 0.674359 5.453199-0.405229 1.965771-1.458211 4.137227-3.082198 6.5553l1.033539 0.899486 6.444782-6.569626-11.797697-22.582321-1.354857 0.731664 0.60989 1.222851c0.424672 0.816598 0.576121 1.463328 0.429789 1.952468C867.400894 317.246411 867.042737 317.647547 866.419544 317.961702zM865.985662 358.203218c-7.176446 2.860141-11.906168 6.264681-14.210653 10.222829-2.303462 3.961218-2.563382 8.169053-0.783853 12.623505 1.14201 2.87549 3.215228 4.945639 6.204305 6.239098 3.00238 1.295506 6.326079 1.673106 9.979282 1.151219l0.150426-1.716084c-3.275603 0.563842-6.198166 0.294712-8.752338-0.816598-2.539846-1.102101-4.333702-2.940982-5.339612-5.482875-1.459235-3.663436-0.830925-6.960529 1.873674-9.881045 2.719948-2.928702 7.019881-5.563716 12.906961-7.912204 5.41943-2.14792 10.329253-3.03308 14.729469-2.669806 4.391007 0.38681 7.251148 2.242064 8.591679 5.589298 1.004887 2.541893 1.038656 4.940522 0.065492 7.163143-0.961908 2.233877-2.765997 4.432962-5.41022 6.588045l1.052982 1.24127 9.66308-6.315846c-0.604774-0.132006-1.076518-0.36839-1.38351-0.696872-0.325411-0.344854-0.604774-0.825808-0.854461-1.466398-0.312108-0.793062-0.490164-1.826602-0.542352-3.101641-0.042979-1.27197-0.297782-2.467191-0.722454-3.578502-1.911536-4.78191-5.41022-7.773034-10.489912-8.981559C877.612467 355.200838 872.046704 355.809705 865.985662 358.203218zM880.318088 395.125129c-6.580882 1.862417-11.471262 4.704139-14.662955 8.55177-3.190669 3.833305-4.239558 7.653307-3.176342 11.443633 1.118474 3.959172 3.979638 6.713912 8.615215 8.266267 4.617158 1.537006 10.314926 1.362021 17.061584-0.547469 5.934153-1.665942 10.654664-4.340865 14.153348-8.017604 3.507894-3.654226 4.65502-7.633864 3.445472-11.922541-1.165546-4.111644-4.088108-6.887874-8.775874-8.336876C892.313284 393.118426 886.757754 393.306714 880.318088 395.125129zM897.195477 398.113183c3.75758 0.724501 6.0416 2.485611 6.835685 5.282307 0.930185 3.298116-0.231267 6.170536-3.455705 8.587586-3.233648 2.436492-7.818059 4.480035-13.751189 6.149047-7.421017 2.108011-12.878309 2.75474-16.400528 1.970888-3.511987-0.793062-5.669116-2.588965-6.452969-5.38873-0.751107-2.648316 0.239454-5.28947 2.960425-7.924483 2.738367-2.639107 7.643074-4.958942 14.729469-6.965645C888.249735 397.968897 893.432781 397.403009 897.195477 398.113183zM870.895485 437.617919c-0.387833-0.280386-0.661056-0.845251-0.812505-1.697665l-0.12689-0.753153-1.524726 0.254803 1.322112 7.605212 1.5104-0.25685-0.122797-0.76748c-0.121773-0.677429-0.047072-1.24434 0.217964-1.730411 0.264013-0.478907 0.726547-0.778736 1.401929-0.89437l32.389688-5.627161 0.079818 0.502443-34.561144 14.09195 0.26913 1.508353 38.178531 2.24718 0.104377 0.511653-33.151028 5.737678c-0.674359 0.12075-1.198292 0.037862-1.595334-0.231267-0.406253-0.285502-0.675382-0.842181-0.821715-1.678222l-0.227174-1.264806-1.51961 0.25992 1.902326 10.885931 1.523703-0.254803-0.179079-1.02433c-0.11768-0.673335-0.037862-1.24434 0.227174-1.727341 0.25992-0.476861 0.717338-0.776689 1.401929-0.892323l36.18513-6.281053c0.670266-0.110517 1.217734 0.00921 1.633197 0.36839 0.406253 0.366344 0.675382 0.88516 0.793062 1.555425l0.169869 1.020236 1.51961-0.264013-1.411139-8.103562-34.391275-2.305509-0.095167-0.511653 31.752168-12.897751-1.226944-7.081279-1.528819 0.271176 0.169869 0.932232c0.132006 0.778736 0.056282 1.343601-0.217964 1.726318-0.296759 0.36839-0.773619 0.613984-1.458211 0.724501l-36.176944 6.281053C871.829763 437.97096 871.300714 437.893188 870.895485 437.617919zM916.81942 470.00249c0.052189 0.785899-0.080841 1.347694-0.387833 1.697665-0.329505 0.337691-0.830925 0.531096-1.51961 0.578168l-36.624129 2.549056c-0.670266 0.052189-1.209548-0.082888-1.567705-0.413416-0.3776-0.318248-0.584308-0.901533-0.651846-1.75804l-0.047072-0.753153-1.548262 0.101307 0.533143 7.709589 1.544169-0.106424-0.047072-0.76441c-0.027629-0.689708 0.084934-1.255597 0.397043-1.704828 0.316202-0.455371 0.802272-0.696872 1.50119-0.760317l32.772404-2.281973 0.047072 0.51677-35.83209 10.477632 0.104377 1.531889 37.781488 6.114255 0.027629 0.518816-33.56035 2.330068c-0.680499 0.037862-1.209548-0.092098-1.562589-0.406253-0.372483-0.319272-0.566912-0.923022-0.64673-1.784646l-0.099261-1.272993-1.544169 0.097214 0.769526 11.032264 1.548262-0.101307-0.061398-1.028423c-0.057305-0.677429 0.079818-1.24434 0.38681-1.701758 0.317225-0.442068 0.812505-0.691755 1.486864-0.74599l36.620036-2.537799c0.670266-0.061398 1.209548 0.125867 1.576915 0.527003s0.576121 0.943488 0.623193 1.619894l0.084934 1.031493 1.548262-0.122797-0.566912-8.179286-33.952276-5.794983-0.048095-0.529049 32.895201-9.526981-0.505513-7.213285-1.553379 0.106424L916.81942 470.00249zM920.312988 521.995655l0.3776-11.31879-1.561565-0.044002-0.048095 1.291412c-0.032746 0.854461-0.211824 1.441838-0.565888 1.781576-0.344854 0.330528-0.864694 0.491187-1.554402 0.471744l-30.04734-0.948605c-3.77293-0.12075-6.538927 0.948605-8.328689 3.204995-1.788739 2.24718-2.723018 4.919033-2.823302 7.987928-0.107447 2.913353 0.802272 5.556553 2.709715 7.930623 1.873674 2.379187 4.545526 3.611248 7.973602 3.729951l29.788443 0.935302c0.674359 0.014326 1.189082 0.264013 1.51961 0.707105 0.334621 0.424672 0.481977 0.991584 0.462534 1.681292l-0.061398 1.539053 1.561565 0.047072 0.283456-9.252735-1.539053-0.047072-0.048095 1.539053c-0.036839 0.859577-0.226151 1.444908-0.584308 1.788739-0.355087 0.317225-0.86981 0.487094-1.557472 0.458441l-29.80277-0.935302c-2.564405-0.094144-4.669346-1.057075-6.331195-2.908236-1.65264-1.859347-2.446725-4.064572-2.356674-6.618744 0.080841-2.388397 0.741897-4.310166 1.987261-5.740748 1.246387-1.421372 3.568269-2.068102 7.006578-1.954515l30.052456 0.939395c0.684592 0.023536 1.190105 0.254803 1.524726 0.712221 0.325411 0.425695 0.476861 0.991584 0.457418 1.685385l-0.037862 1.288343L920.312988 521.995655zM917.149948 553.138956c-0.121773 0.962931-0.38681 1.600451-0.76441 1.940189-0.405229 0.339738-0.930185 0.462534-1.614777 0.3776l-36.434817-4.900613c-0.689708-0.079818-1.174756-0.320295-1.464351-0.704035-0.311085-0.381693-0.38681-1.004887-0.282433-1.846044l0.282433-2.029216-1.51961-0.207731-1.364067 10.155291 1.524726 0.202615 0.274246-2.030239c0.084934-0.679475 0.312108-1.208525 0.717338-1.586125 0.397043-0.367367 0.925069-0.529049 1.623987-0.429789l34.396391 4.626367-0.070608 0.514723-40.576137 14.397918 0.019443-0.14224-0.207731 1.511423 40.001039 5.382591c0.684592 0.104377 1.161453 0.372483 1.449002 0.830925 0.274246 0.467651 0.3776 1.038656 0.282433 1.714038l-0.274246 2.034333 1.524726 0.197498 1.354857-10.149151-1.51961-0.189312-0.274246 2.025123c-0.104377 0.845251-0.35918 1.421372-0.74599 1.714038-0.3776 0.287549-0.896416 0.397043-1.591241 0.301875l-29.811979-3.998057 0.065492-0.50449 35.670407-12.671601 1.081635-8.05342-1.524726-0.216941L917.149948 553.138956zM908.661623 603.611487c-0.192382 0.835018-0.499373 1.378393-0.915859 1.633197-0.415462 0.25992-0.939395 0.301875-1.614777 0.150426l-35.746132-8.615215c-0.665149-0.155543-1.124614-0.440022-1.369184-0.864694-0.25992-0.414439-0.288572-1.029446-0.090051-1.859347l1.3743-5.759167-1.472538-0.340761-4.815679 19.96982 1.49198 0.363274 1.378393-5.744841c0.169869-0.670266 0.458441-1.179872 0.892323-1.506307 0.429789-0.344854 0.972141-0.420579 1.647523-0.25992l35.742039 8.611122c0.665149 0.155543 1.128707 0.48607 1.354857 0.972141 0.226151 0.500397 0.25992 1.076518 0.099261 1.746784l-1.378393 5.759167 1.496074 0.339738 4.805446-19.987217-1.50119-0.349971L908.661623 603.611487zM881.238041 627.375727c-7.278777-2.578732-13.091156-3.131317-17.423835-1.672082-4.342912 1.464351-7.321756 4.475941-8.903787 8.988722-1.047866 2.908236-0.845251 5.854335 0.566912 8.800433 1.407046 2.955308 3.65832 5.437849 6.750751 7.440459l1.251503-1.184989c-2.836605-1.736551-4.847401-3.866051-6.042623-6.382361-1.189082-2.51631-1.340531-5.060249-0.419556-7.653307 1.311879-3.719718 3.965312-5.777587 7.921413-6.194072 3.965312-0.424672 8.93244 0.424672 14.912641 2.549056 5.500271 1.945305 9.758248 4.503571 12.81691 7.680936 3.068895 3.168156 4.013407 6.463202 2.794649 9.848299-0.916882 2.596128-2.464121 4.40431-4.65502 5.452175-2.181689 1.043772-4.985548 1.50119-8.393157 1.39272l-0.019443 1.623987 11.413957 1.599428c-0.367367-0.490164-0.556679-0.972141-0.584308-1.434675-0.010233-0.462534 0.084934-1.010003 0.320295-1.671059 0.282433-0.802272 0.816598-1.699712 1.629103-2.696412 0.807389-0.977257 1.396813-2.038426 1.803066-3.167133 1.724271-4.862751 1.062192-9.4093-1.968841-13.671371C891.963313 632.766504 887.360482 629.547183 881.238041 627.375727zM849.443917 656.57884c-0.160659-0.642636-0.104377-1.27504 0.192382-1.889023l0.339738-0.704035-1.373277-0.655939-4.069689 8.577353 1.369184 0.64673 0.329505-0.698918c0.509606-1.085728 1.284249-1.586125 2.275833-1.481747 1.001817 0.090051 2.13871 0.632403 3.390213 1.604544l7.776104 6.429433-4.820796 10.145058-11.386328-2.38328c-1.237177-0.198521-2.081405-0.543376-2.5071-1.034563-0.428765-0.487094-0.428765-1.204431 0.005117-2.13871l0.444115-0.925069-1.387603-0.641613-4.744048 10.012028 1.373277 0.656963 0.330528-0.689708c0.292666-0.62217 0.750083-1.076518 1.359974-1.344624 0.618077-0.287549 1.449002-0.363274 2.538823-0.227174l40.883129 8.591679 0.509606-4.102435-31.275307-25.880437C850.141812 657.867182 849.613786 657.234779 849.443917 656.57884zM877.834524 683.44472l-0.094144 0.180102-21.461801-4.498454 4.597715-9.706059L877.834524 683.44472zM859.932806 706.84671c2.521426 3.130294 3.89061 5.324262 4.145413 6.575766 0.23536 1.251503-0.264013 2.888793-1.5104 4.942569-0.623193 1.029446-1.047866 1.562589-1.289366 1.62501-0.240477 0.061398-0.944512-0.274246-2.111081-0.982374l-30.761608-18.690688c-0.585331-0.36225-0.930185-0.769526-1.057075-1.25969-0.10847-0.462534 0.057305-1.057075 0.49528-1.804089l1.208525-1.963725-1.298576-0.802272-6.944156 11.42419 1.336438 0.793062 1.189082-1.983167c0.355087-0.576121 0.803295-0.972141 1.316995-1.161453 0.514723-0.174985 1.062192-0.104377 1.647523 0.254803l30.535457 18.562774c1.331321 0.811482 2.00568 1.316995 2.062985 1.562589 0.061398 0.216941-0.354064 1.071402-1.246387 2.534729-1.242294 2.049682-2.469238 3.15383-3.677762 3.333932-1.209548 0.159636-3.701299-0.104377-7.496741-0.807389l-0.453325 1.232061 9.413394 3.323699 12.666484-20.847817-7.142677-7.034207L859.932806 706.84671zM839.830979 753.055125c-0.518816 0.674359-1.019213 1.051959-1.50119 1.109264-0.471744 0.070608-0.9967-0.10847-1.539053-0.523933l-29.29828-22.169929c-0.537236-0.414439-0.839111-0.86367-0.915859-1.331321-0.057305-0.471744 0.169869-1.057075 0.689708-1.750877l3.549849-4.697999-1.24127-0.939395-12.401448 16.366759 1.246387 0.940418 3.560082-4.692882c0.414439-0.538259 0.887206-0.892323 1.407046-1.02433 0.542352-0.127913 1.080611 0.019443 1.633197 0.419556l29.283953 22.193465c0.533143 0.410346 0.825808 0.89744 0.839111 1.444908 0.01535 0.537236-0.184195 1.085728-0.599657 1.633197l-3.560082 4.692882 1.24741 0.944512 12.387122-16.367783-1.24741-0.939395L839.830979 753.055125zM805.387515 763.988128c-5.012154-4.673439-9.984399-7.393387-14.936177-8.120958-4.928243-0.740874-8.753361 0.340761-11.434423 3.219321-2.814092 3.003404-3.682879 6.887874-2.586918 11.642155 1.067308 4.762467 4.192485 9.53619 9.337669 14.323217 4.532223 4.230348 9.243525 6.864338 14.20042 7.973602 4.957919 1.099031 8.955976 0.00921 11.991102-3.258207 2.918469-3.130294 3.777023-7.072069 2.586918-11.806907C813.337581 773.203 810.293245 768.538771 805.387515 763.988128zM810.638099 788.564873c-2.337231 2.512217-5.3918 3.016707-9.140171 1.511423-3.75758-1.511423-7.888667-4.380774-12.415774-8.582469-5.646604-5.259794-9.055237-9.597589-10.193153-13.020548-1.161453-3.422959-0.740874-6.212492 1.246387-8.332782 1.883907-1.99647 4.640694-2.530636 8.332782-1.567705 3.663436 0.968048 8.200776 3.950985 13.601786 8.983605 5.022387 4.687766 8.199753 8.828063 9.549493 12.416797C812.954865 783.575232 812.620243 786.441513 810.638099 788.564873zM791.452131 807.76926c-0.74599 0.651846-1.359974 0.958838-1.87879 0.958838-0.51984 0-1.001817-0.25992-1.454118-0.774643l-24.170492-27.658943c-0.462534-0.523933-0.670266-1.020236-0.642636-1.50119 0.019443-0.481977 0.36839-1.020236 1.010003-1.587148l1.548262-1.336438-1.014096-1.174756-7.746428 6.759961 1.019213 1.179872 1.539053-1.359974c0.523933-0.444115 1.047866-0.669242 1.596358-0.707105 0.547469-0.019443 1.057075 0.227174 1.496074 0.7552l22.835078 26.106588-0.387833 0.330528-40.022529-15.862269 0.11768-0.104377-1.166569 1.010003 26.544563 30.378891c0.448208 0.514723 0.623193 1.043772 0.524956 1.582031-0.095167 0.547469-0.406253 1.043772-0.916882 1.49198l-1.557472 1.349741 1.029446 1.151219 7.742335-6.759961-1.020236-1.165546-1.553379 1.358951c-0.63752 0.552585-1.208525 0.831948-1.684362 0.793062-0.472767-0.042979-0.958838-0.306992-1.407046-0.817622l-19.771299-22.64065 0.387833-0.339738 35.19764 13.964036 6.127558-5.362124-1.019213-1.161453L791.452131 807.76926zM747.755933 823.537386c-2.294252-0.264013-5.910617 0.095167-10.876722 1.094938-3.682879 0.717338-6.647397 0.906649-8.965186 0.500397-2.261507-0.38681-3.895727-1.289366-4.895497-2.681062-1.864464-2.65855-2.714831-5.098111-2.521426-7.346315 0.198521-2.237971 1.49198-4.187369 3.860934-5.881964 2.238994-1.576915 4.692882-2.332115 7.384178-2.24718 2.686179 0.084934 5.749958 1.524726 9.195429 4.306072l0.968048-1.294482-8.945743-9.072633c-0.265036 0.821715-0.481977 1.51961-0.708128 2.095731-0.222057 0.585331-0.547469 1.020236-0.972141 1.322112-0.689708 0.500397-1.804089 0.906649-3.338025 1.255597-1.533936 0.355087-3.01159 1.029446-4.405333 2.02103-3.351328 2.379187-5.216815 5.16565-5.579065 8.356318-0.349971 3.200902 0.354064 6.042623 2.128477 8.563026 1.685385 2.379187 3.903913 3.914146 6.595208 4.618181 2.708692 0.698918 6.230911 0.556679 10.574846-0.406253 5.343705-1.066285 8.7902-1.468444 10.338463-1.179872 1.557472 0.265036 2.87549 1.157359 3.975545 2.691295 1.171686 1.671059 1.793856 3.616364 1.86958 5.759167 0.047072 2.167363-1.246387 4.188392-3.903913 6.072299-2.111081 1.496074-4.178159 2.190899-6.255471 2.086521-2.076288-0.104377-4.776793-1.179872-8.114818-3.215228l-0.750083 1.165546 6.92983 7.997138c-0.122797-0.74599-0.070608-1.369184 0.11768-1.831718 0.207731-0.448208 0.514723-0.845251 0.939395-1.128707 0.566912-0.397043 1.647523-0.802272 3.257184-1.199315 1.600451-0.410346 3.115967-1.100054 4.523013-2.091638 3.219321-2.289136 5.03262-4.984524 5.448082-8.110725 0.414439-3.125177-0.11768-5.721305-1.605567-7.836479C752.131591 825.264727 750.050186 823.796282 747.755933 823.537386zM614.339318 430.864098c53.302997 31.939433 50.329269 68.236104 50.329269 68.236104l26.644847-17.426905c-2.955308-37.745672-42.926672-92.90904-42.926672-92.90904 60.705594 27.584242 59.222823 76.940346 59.222823 76.940346l32.574906-5.811356c-1.49198-62.421678-35.548634-105.974613-35.548634-105.974613 68.104097 55.168484 65.148789 117.592208 65.148789 117.592208l37.001729-2.901073c-8.885368-84.201727-50.334385-142.266168-50.334385-142.266168-68.51956-95.831602-196.733687-131.348514-299.048957-117.579929-113.173572 15.22168-155.448398 85.640496-155.448398 85.640496 13.317307 0 32.559557 14.521738 97.698113 49.361221 65.138556 34.83539 68.108191 88.547709 68.108191 88.547709 13.326517 110.326734-48.856731 87.095637-48.856731 87.095637-8.894577 2.917446-37.011962 2.917446-85.853343-2.888793-48.851615-5.804193-42.935881-24.681122-94.747921-15.966647-51.811016 8.700149-47.379077 47.907103-47.379077 47.907103l453.019701-1.454118C648.385738 477.327316 614.339318 430.864098 614.339318 430.864098zM811.213197 484.795405l-41.439808 0c11.839653 148.037614-111.034862 248.714572-111.045095 248.714572l-31.076786-32.568766-41.46846 34.042327 13.326517 26.644847c-142.121881 50.347688-275.358395-50.334385-275.358395-50.334385l-32.559557 28.135804c20.723997 20.730137 226.502687 148.057057 387.862725 28.126594C840.832795 647.647423 811.213197 484.795405 811.213197 484.795405zM617.2803 686.150342l-31.087019-29.636994-28.131711 23.697725 20.73423 34.043351L617.2803 686.150342zM549.194622 663.929248l29.610388-22.211884-19.25146-23.680329-25.177426 17.759479c0 0 11.849886 34.046421 10.372232 28.131711C543.261493 658.014538 549.194622 663.929248 549.194622 663.929248zM516.705674 596.807524l9.060353 23.378453 23.390733-16.593933-14.341636-16.59905L516.705674 596.807524z" p-id="4263"/></svg>